<svg xmlns="http://www.w3.org/2000/svg" viewBox="0 0 16 13" width="64" height="52" shape-rendering="crispEdges"><rect x="1" y="1" width="6" height="1" fill="#1f2421"/><rect x="9" y="1" width="6" height="1" fill="#1f2421"/><rect x="0" y="2" width="1" height="1" fill="#1f2421"/><rect x="1" y="2" width="6" height="1" fill="#ffffff"/><rect x="7" y="2" width="2" height="1" fill="#1f2421"/><rect x="9" y="2" width="6" height="1" fill="#ffffff"/><rect x="15" y="2" width="1" height="1" fill="#1f2421"/><rect x="0" y="3" width="1" height="1" fill="#1f2421"/><rect x="1" y="3" width="1" height="1" fill="#ffffff"/><rect x="2" y="3" width="4" height="1" fill="#1f2421"/><rect x="6" y="3" width="1" height="1" fill="#ffffff"/><rect x="7" y="3" width="2" height="1" fill="#1f2421"/><rect x="9" y="3" width="1" height="1" fill="#ffffff"/><rect x="10" y="3" width="4" height="1" fill="#1f2421"/><rect x="14" y="3" width="1" height="1" fill="#ffffff"/><rect x="15" y="3" width="1" height="1" fill="#1f2421"/><rect x="0" y="4" width="1" height="1" fill="#1f2421"/><rect x="1" y="4" width="6" height="1" fill="#ffffff"/><rect x="7" y="4" width="2" height="1" fill="#1f2421"/><rect x="9" y="4" width="6" height="1" fill="#ffffff"/><rect x="15" y="4" width="1" height="1" fill="#1f2421"/><rect x="0" y="5" width="1" height="1" fill="#1f2421"/><rect x="1" y="5" width="1" height="1" fill="#ffffff"/><rect x="2" y="5" width="4" height="1" fill="#1f2421"/><rect x="6" y="5" width="1" height="1" fill="#ffffff"/><rect x="7" y="5" width="2" height="1" fill="#1f2421"/><rect x="9" y="5" width="1" height="1" fill="#ffffff"/><rect x="10" y="5" width="3" height="1" fill="#1f2421"/><rect x="13" y="5" width="2" height="1" fill="#ffffff"/><rect x="15" y="5" width="1" height="1" fill="#1f2421"/><rect x="0" y="6" width="1" height="1" fill="#1f2421"/><rect x="1" y="6" width="6" height="1" fill="#ffffff"/><rect x="7" y="6" width="2" height="1" fill="#1f2421"/><rect x="9" y="6" width="6" height="1" fill="#ffffff"/><rect x="15" y="6" width="1" height="1" fill="#1f2421"/><rect x="0" y="7" width="1" height="1" fill="#1f2421"/><rect x="1" y="7" width="1" height="1" fill="#ffffff"/><rect x="2" y="7" width="3" height="1" fill="#1f2421"/><rect x="5" y="7" width="2" height="1" fill="#ffffff"/><rect x="7" y="7" width="2" height="1" fill="#1f2421"/><rect x="9" y="7" width="1" height="1" fill="#ffffff"/><rect x="10" y="7" width="4" height="1" fill="#1f2421"/><rect x="14" y="7" width="1" height="1" fill="#ffffff"/><rect x="15" y="7" width="1" height="1" fill="#1f2421"/><rect x="0" y="8" width="1" height="1" fill="#1f2421"/><rect x="1" y="8" width="6" height="1" fill="#ffffff"/><rect x="7" y="8" width="2" height="1" fill="#1f2421"/><rect x="9" y="8" width="6" height="1" fill="#ffffff"/><rect x="15" y="8" width="1" height="1" fill="#1f2421"/><rect x="0" y="9" width="1" height="1" fill="#1f2421"/><rect x="1" y="9" width="1" height="1" fill="#ffffff"/><rect x="2" y="9" width="4" height="1" fill="#1f2421"/><rect x="6" y="9" width="1" height="1" fill="#ffffff"/><rect x="7" y="9" width="2" height="1" fill="#1f2421"/><rect x="9" y="9" width="1" height="1" fill="#ffffff"/><rect x="10" y="9" width="2" height="1" fill="#1f2421"/><rect x="12" y="9" width="3" height="1" fill="#ffffff"/><rect x="15" y="9" width="1" height="1" fill="#1f2421"/><rect x="0" y="10" width="1" height="1" fill="#1f2421"/><rect x="1" y="10" width="6" height="1" fill="#ffffff"/><rect x="7" y="10" width="2" height="1" fill="#1f2421"/><rect x="9" y="10" width="6" height="1" fill="#ffffff"/><rect x="15" y="10" width="1" height="1" fill="#1f2421"/><rect x="0" y="11" width="1" height="1" fill="#1f2421"/><rect x="1" y="11" width="6" height="1" fill="#43c767"/><rect x="7" y="11" width="2" height="1" fill="#1f2421"/><rect x="9" y="11" width="6" height="1" fill="#43c767"/><rect x="15" y="11" width="1" height="1" fill="#1f2421"/><rect x="1" y="12" width="14" height="1" fill="#1f2421"/></svg>